HIERARCHY
ROOT root
{
	OFFSET 0.000000 0.000000 0.000000
	CHANNELS 6 Xposition Yposition Zposition Zrotation Yrotation Xrotation
	JOINT lhip
	{
		OFFSET 0.058581 -0.082280 -0.017664
		CHANNELS 3 Zrotation Yrotation Xrotation
		JOINT lknee
		{
			OFFSET 0.043451 -0.386469 0.008037
			CHANNELS 3 Zrotation Yrotation Xrotation
			JOINT lankle
			{
				OFFSET -0.014790 -0.426874 -0.037428
				CHANNELS 3 Zrotation Yrotation Xrotation
				JOINT ltoe
				{
					OFFSET 0.041054 -0.060286 0.122042
					CHANNELS 3 Zrotation Yrotation Xrotation
					End Site
					{
						OFFSET 0.000000 0.000000 0.000000
					}
				}
			}
		}
	}
	JOINT rhip
	{
		OFFSET -0.060310 -0.090513 -0.013543
		CHANNELS 3 Zrotation Yrotation Xrotation
		JOINT rknee
		{
			OFFSET -0.043257 -0.383688 -0.004843
			CHANNELS 3 Zrotation Yrotation Xrotation
			JOINT rankle
			{
				OFFSET 0.019056 -0.420046 -0.034562
				CHANNELS 3 Zrotation Yrotation Xrotation
				JOINT rtoe
				{
					OFFSET -0.034840 -0.062106 0.130323
					CHANNELS 3 Zrotation Yrotation Xrotation
					End Site
					{
						OFFSET 0.000000 0.000000 0.000000
					}
				}
			}
		}
	}
	JOINT lowerback
	{
		OFFSET 0.004439 0.124404 -0.038385
		CHANNELS 3 Zrotation Yrotation Xrotation
		JOINT upperback
		{
			OFFSET 0.004488 0.137956 0.026820
			CHANNELS 3 Zrotation Yrotation Xrotation
			JOINT chest
			{
				OFFSET -0.002265 0.056032 0.002855
				CHANNELS 3 Zrotation Yrotation Xrotation
				JOINT lowerneck
				{
					OFFSET -0.013390 0.211636 -0.033468
					CHANNELS 3 Zrotation Yrotation Xrotation
					JOINT upperneck
					{
						OFFSET 0.010113 0.088937 0.050410
						CHANNELS 3 Zrotation Yrotation Xrotation
						End Site
						{
							OFFSET 0.000000 0.000000 0.000000
						}
					}
				}
				JOINT lclavicle
				{
					OFFSET 0.071702 0.114000 -0.018898
					CHANNELS 3 Zrotation Yrotation Xrotation
					JOINT lshoulder
					{
						OFFSET 0.122921 0.045205 -0.019046
						CHANNELS 3 Zrotation Yrotation Xrotation
						JOINT lelbow
						{
							OFFSET 0.255332 -0.015649 -0.022946
							CHANNELS 3 Zrotation Yrotation Xrotation
							JOINT lwrist
							{
								OFFSET 0.265709 0.012698 -0.007375
								CHANNELS 3 Zrotation Yrotation Xrotation
								End Site
								{
									OFFSET 0.000000 0.000000 0.000000
								}
							}
						}
					}
				}
				JOINT rclavicle
				{
					OFFSET -0.082954 0.112472 -0.023707
					CHANNELS 3 Zrotation Yrotation Xrotation
					JOINT rshoulder
					{
						OFFSET -0.113228 0.046853 -0.008472
						CHANNELS 3 Zrotation Yrotation Xrotation
						JOINT relbow
						{
							OFFSET -0.260127 -0.014369 -0.031269
							CHANNELS 3 Zrotation Yrotation Xrotation
							JOINT rwrist
							{
								OFFSET -0.269108 0.006794 -0.006027
								CHANNELS 3 Zrotation Yrotation Xrotation
								End Site
								{
									OFFSET 0.000000 0.000000 0.000000
								}
							}
						}
					}
				}
			}
		}
	}
}
MOTION
Frames: 16
Frame Time: 0.033333
0.033276 0.456769 1.009777 176.059761 -1.157834 84.467033 4.534744 2.249966 5.109934 -4.300264 -5.553684 4.487973 -4.779512 14.808690 -7.239878 0.000000 -0.000000 0.000000 -4.002568 -2.572441 2.206609 3.114091 8.805361 9.154034 6.627705 -10.407466 -7.781498 0.000000 -0.000000 0.000000 -1.450327 -1.031558 2.556653 0.743810 -4.225908 -7.980803 1.235998 0.098025 0.281424 1.221857 -1.517985 2.763502 4.698593 0.308768 5.945479 18.351094 -17.061953 -21.143672 24.643685 -36.031929 -26.875422 37.099156 -51.867203 -70.748192 16.300034 -20.104088 -83.719638 -20.345237 17.133649 -24.821546 -22.264237 37.971399 -28.148643 -30.881792 43.859736 -55.234405 1.282648 28.172863 -61.126677 
0.033231 0.456342 1.009912 176.148251 -1.170638 84.564395 4.551385 2.189004 5.109279 -4.345981 -5.627233 4.142301 -4.824477 14.854567 -7.049892 0.000000 -0.000000 0.000000 -4.069471 -2.600783 2.139454 3.177396 8.783717 8.994570 6.681152 -10.438311 -7.673393 0.000000 -0.000000 0.000000 -1.485579 -1.006694 2.671470 0.774049 -4.155349 -7.964171 1.270765 0.230591 0.340442 1.218197 -1.506023 2.910657 4.647045 0.158731 5.730957 18.387557 -16.764007 -21.125263 25.181435 -35.589639 -26.774900 36.982349 -52.141151 -70.716278 16.315534 -20.857560 -83.725533 -20.306219 16.898971 -24.888353 -22.706734 37.578933 -28.102718 -30.437291 44.070286 -55.072361 1.387550 28.313870 -60.913788 
0.033181 0.455883 1.010057 176.302433 -1.197668 84.625076 4.526159 2.138821 5.027595 -4.360718 -5.765400 4.030334 -4.865996 14.924959 -6.928929 0.000000 -0.000000 0.000000 -4.110101 -2.666251 2.127043 3.168206 8.764019 8.837457 6.749475 -10.531076 -7.558079 0.000000 -0.000000 0.000000 -1.522258 -0.924195 2.845010 0.736219 -4.126961 -8.010323 1.249478 0.233801 0.451355 1.334244 -1.471965 2.935158 4.692389 0.074062 5.543037 18.644242 -16.415518 -21.254261 25.651355 -35.431123 -26.861436 36.164552 -52.163918 -69.721040 16.241838 -21.108434 -83.752030 -20.342305 16.539823 -24.919106 -22.761179 37.455750 -28.028656 -30.307217 44.186723 -54.801119 1.498326 28.346757 -61.059360 
0.033120 0.455360 1.010164 176.461684 -1.195387 84.646235 4.524749 2.069730 4.936628 -4.357087 -5.851187 4.042175 -4.958968 14.917082 -6.905223 0.000000 -0.000000 0.000000 -4.104051 -2.685089 2.140561 3.157227 8.715854 8.742750 6.749096 -10.624260 -7.506717 0.000000 -0.000000 0.000000 -1.562053 -0.886000 3.015636 0.749380 -4.137841 -7.988644 1.260583 0.223651 0.545444 1.339153 -1.393690 2.876792 4.602088 0.003632 5.458199 18.903322 -16.224191 -21.362234 25.959411 -35.346478 -27.047664 35.728218 -51.947063 -69.202853 16.305083 -21.154034 -83.707205 -20.453250 16.354840 -25.018849 -22.703801 37.555054 -28.034557 -30.430735 44.119556 -54.858270 1.176712 28.268457 -61.390382 
0.033175 0.454909 1.010184 176.525647 -1.192034 84.673196 4.544633 2.057638 4.879832 -4.370689 -5.885049 4.013490 -4.979255 14.886811 -6.856262 0.000000 -0.000000 0.000000 -4.100940 -2.650231 2.070383 3.154211 8.636073 8.757426 6.819752 -10.565501 -7.428845 0.000000 -0.000000 0.000000 -1.604307 -0.886300 3.089764 0.798488 -4.119300 -7.896414 1.304022 0.308809 0.642706 1.243043 -1.101961 2.898628 4.529689 -0.016839 5.277670 19.035292 -16.132738 -21.402239 25.925285 -35.288517 -27.042916 36.477132 -51.850049 -69.800847 16.255097 -21.034867 -83.684736 -20.423677 16.368891 -24.938836 -22.848851 37.719292 -28.378688 -30.884047 43.909407 -55.298510 1.014966 28.054239 -61.261752 
0.033040 0.454515 1.010025 176.543103 -1.219906 84.687899 4.523785 2.091130 4.842951 -4.385959 -5.833714 4.018125 -4.981132 14.826767 -6.873694 0.000000 -0.000000 0.000000 -4.136924 -2.623985 1.997143 3.155224 8.561399 8.829042 6.827637 -10.522126 -7.438331 0.000000 -0.000000 0.000000 -1.648132 -0.849106 3.209396 0.823804 -4.087200 -7.791965 1.306286 0.397374 0.640495 1.281657 -0.963309 2.931327 4.523413 0.000472 5.203554 19.070219 -16.213878 -21.469717 26.081789 -35.230109 -27.130514 36.772152 -51.648462 -70.171424 16.263943 -21.081250 -83.603314 -20.280305 16.582251 -24.851653 -22.999723 37.632239 -28.585251 -31.452086 43.874956 -56.015416 0.933707 28.039999 -61.515750 
0.032946 0.454083 1.009999 176.600337 -1.211611 84.720079 4.534989 2.061452 4.733155 -4.415906 -5.838668 4.094676 -5.005000 14.786862 -6.821330 0.000000 -0.000000 0.000000 -4.130025 -2.648694 1.930782 3.146492 8.466443 8.844670 6.761831 -10.497124 -7.474224 0.000000 -0.000000 0.000000 -1.599435 -0.807495 3.364785 0.803034 -4.061514 -7.768496 1.334661 0.420055 0.678714 1.236393 -0.958402 2.747702 4.435247 -0.096814 5.093125 19.056273 -16.117347 -21.556904 26.066491 -35.292594 -27.275727 37.088220 -51.588384 -70.514685 16.232261 -21.141872 -83.514049 -20.225678 16.516923 -25.003964 -23.053551 37.770824 -28.660646 -31.532196 43.982547 -56.016207 0.874164 28.120252 -61.475029 
0.033000 0.453934 1.009972 176.661057 -1.208279 84.727532 4.543859 2.049456 4.687468 -4.414501 -5.852061 4.136508 -5.027396 14.763687 -6.825307 0.000000 -0.000000 0.000000 -4.128869 -2.640089 1.908460 3.155748 8.456187 8.880143 6.787585 -10.511697 -7.455031 0.000000 -0.000000 0.000000 -1.557197 -0.800317 3.474616 0.783838 -4.045204 -7.685413 1.331625 0.405021 0.782476 1.286429 -0.785967 2.484086 4.333721 -0.023388 5.077311 19.111782 -15.840122 -21.520428 25.910198 -35.213084 -27.253073 37.376466 -51.623968 -70.432443 16.234460 -21.279797 -83.477091 -20.269957 16.321462 -25.028224 -23.049565 37.956028 -28.877204 -31.748250 43.850934 -56.020605 1.183541 28.157015 -61.098760 
0.032978 0.453627 1.009877 176.649954 -1.222458 84.797170 4.517573 2.041056 4.656473 -4.412382 -5.853277 4.076189 -5.052256 14.752595 -6.818065 0.000000 -0.000000 0.000000 -4.129598 -2.604386 1.835812 3.120023 8.441182 8.899129 6.798415 -10.528502 -7.410344 0.000000 -0.000000 0.000000 -1.492459 -0.882219 3.561181 0.743686 -3.984830 -7.660823 1.221785 0.450155 0.829132 1.435264 -0.754131 2.262794 4.385475 -0.055958 5.050686 19.228816 -15.406961 -21.315683 25.722772 -35.062515 -27.020976 37.818819 -51.712699 -70.317883 16.300225 -21.486872 -83.466570 -20.219748 16.119145 -24.765196 -23.046964 37.868878 -28.913058 -31.836176 44.017097 -55.767058 0.929729 28.274697 -60.976256 
0.032857 0.453320 1.009828 176.618253 -1.206627 84.898292 4.523424 2.021894 4.569547 -4.413170 -5.794191 4.098732 -5.092352 14.746635 -6.755095 0.000000 -0.000000 0.000000 -4.106134 -2.533526 1.772785 3.104893 8.385416 8.836688 6.819092 -10.524159 -7.406697 0.000000 -0.000000 0.000000 -1.418965 -0.901917 3.546387 0.726592 -3.895925 -7.536998 1.157581 0.398697 0.743210 1.555260 -0.950471 2.005015 4.265653 -0.176204 4.952126 18.942721 -15.237695 -20.943928 25.466734 -34.631436 -26.766861 38.767200 -52.024705 -70.644873 15.781833 -22.219124 -83.173270 -20.105694 16.007278 -24.495361 -22.680696 37.686500 -28.529649 -32.186990 44.393996 -55.780848 1.239436 28.487464 -60.852255 
0.032836 0.453001 1.009846 176.598584 -1.174184 84.957999 4.539014 2.003376 4.522246 -4.390730 -5.747153 4.105226 -5.138498 14.728397 -6.743549 0.000000 -0.000000 0.000000 -4.082190 -2.490535 1.762688 3.113942 8.344468 8.742580 6.764599 -10.448576 -7.282310 0.000000 -0.000000 0.000000 -1.374691 -0.951069 3.499400 0.738056 -3.882407 -7.373523 1.141475 0.380456 0.793138 1.695946 -0.784991 1.882825 4.161551 -0.123234 4.656764 18.794202 -14.622196 -20.420397 24.553304 -34.170865 -26.160121 39.524208 -52.034166 -70.563992 15.280628 -22.888591 -82.737862 -19.814451 15.570542 -24.145116 -21.999714 37.801419 -28.255608 -32.621445 44.548352 -55.716725 1.312492 28.779337 -60.819478 
0.032957 0.452795 1.009761 176.467161 -1.164292 84.981959 4.550692 2.138335 4.556172 -4.372865 -5.835343 4.075325 -5.233967 14.797868 -6.795813 0.000000 -0.000000 0.000000 -4.042068 -2.399816 1.715525 3.070829 8.314286 8.821007 6.800857 -10.512461 -7.305812 0.000000 -0.000000 0.000000 -1.326951 -1.105229 3.487976 0.778258 -3.914577 -7.058249 1.099709 0.394474 0.820225 1.898739 -0.415340 1.506176 4.037556 0.010775 3.678387 18.332981 -13.613252 -19.659348 23.639393 -32.588385 -25.130407 39.475041 -52.159399 -69.623609 14.792374 -23.844335 -81.983946 -19.289412 15.063790 -23.668892 -21.057687 37.695248 -27.764619 -33.061080 44.403439 -55.793112 1.330052 28.802606 -60.243344 
0.033089 0.452812 1.009600 176.168599 -1.162021 84.971530 4.563483 2.238421 4.651884 -4.382476 -5.794804 4.030865 -5.254687 14.955947 -6.852863 0.000000 -0.000000 0.000000 -4.020978 -2.196814 1.649389 3.117115 8.440116 8.916891 6.737525 -10.576160 -7.385451 0.000000 -0.000000 0.000000 -1.338633 -1.067567 3.539165 0.801191 -3.822020 -6.691432 1.185353 0.353642 0.858864 2.219220 -0.249909 0.869227 3.962255 -0.014502 2.853734 16.926655 -12.787624 -18.662347 22.754266 -30.397090 -24.025294 39.467427 -52.059203 -69.305091 13.920274 -24.885864 -80.411161 -17.998859 14.504315 -22.790356 -20.265299 36.546667 -26.670142 -33.451082 44.863805 -55.984332 1.389848 29.059784 -60.100798 
0.033255 0.453038 1.009523 175.915870 -1.146329 84.922433 4.561353 2.269254 4.797065 -4.343186 -5.744790 3.979335 -5.403962 15.079304 -6.893311 0.000000 -0.000000 0.000000 -4.009240 -2.076241 1.763643 3.109063 8.501355 8.772196 6.801605 -10.509754 -7.393531 0.000000 -0.000000 0.000000 -1.241357 -0.990571 3.646390 0.791628 -3.715033 -6.277385 1.227440 0.389972 0.835025 2.434791 -0.112503 0.484200 3.941251 0.070458 1.785055 14.880423 -11.871173 -17.315423 21.619580 -27.580357 -22.747005 39.389609 -51.568773 -68.722139 13.010937 -26.857685 -79.267117 -16.160431 13.722679 -21.812052 -18.935756 34.655176 -24.908993 -34.389234 45.806786 -56.256837 1.641313 29.455886 -59.569934 
0.033352 0.453145 1.009234 175.711693 -1.100707 85.001113 4.615801 2.369338 4.751868 -4.356157 -5.679963 3.982705 -5.405651 15.132856 -6.945290 0.000000 -0.000000 0.000000 -4.033136 -2.044621 1.701106 3.201221 8.590161 8.731836 6.740591 -10.411473 -7.366112 0.000000 -0.000000 0.000000 -1.142457 -0.863492 3.627194 0.840201 -3.639909 -5.756327 1.361791 0.369682 0.826401 2.660543 -0.292226 -0.123087 3.717313 0.006931 0.579215 12.373797 -10.688516 -15.992427 19.882661 -24.728461 -21.457560 39.584863 -50.417180 -68.269251 11.293569 -27.631088 -76.282318 -13.859680 12.665983 -20.805225 -17.605767 32.561915 -23.177369 -35.539907 46.593018 -56.861713 1.706400 29.375286 -58.703209 
0.033496 0.453210 1.009078 175.538123 -1.047496 85.198185 4.668090 2.410844 4.542866 -4.363237 -5.628849 4.029360 -5.394458 15.136324 -6.959082 0.000000 -0.000000 0.000000 -4.027408 -1.971671 1.465174 3.249079 8.621832 8.780126 6.795273 -10.316634 -7.406216 0.000000 -0.000000 0.000000 -0.952907 -0.917262 3.615741 0.836601 -3.438528 -5.491802 1.477430 0.445497 1.035037 2.817005 -0.297759 -0.930827 3.598261 0.279543 -0.576346 9.409428 -8.813562 -14.438146 17.603245 -22.214558 -20.015302 40.912879 -50.406988 -69.303580 11.618612 -27.253367 -75.450099 -11.269242 11.126948 -19.727742 -16.243561 30.511915 -21.569097 -36.833806 47.288016 -57.755836 1.060837 28.894736 -58.497872 
